<mxfile host="app.diagrams.net" modified="2023-03-27T01:43:50.945Z" agent="Mozilla/5.0 (Windows NT 10.0; Win64; x64) AppleWebKit/537.36 (KHTML, like Gecko) Chrome/111.0.0.0 Safari/537.36 Edg/111.0.1661.54" etag="N5n8BtF_SMhbzbE3Dp1R" version="21.1.1" type="device">
  <diagram id="R2lEEEUBdFMjLlhIrx00" name="Page-1">
    <mxGraphModel dx="1890" dy="1246" grid="1" gridSize="10" guides="1" tooltips="1" connect="1" arrows="1" fold="1" page="1" pageScale="1" pageWidth="850" pageHeight="1100" math="0" shadow="0" extFonts="Permanent Marker^https://fonts.googleapis.com/css?family=Permanent+Marker">
      <root>
        <mxCell id="0" />
        <mxCell id="1" parent="0" />
        <mxCell id="ry29qnQ4L1H945Ro2DYC-1" value="Lines" style="shape=table;startSize=30;container=1;collapsible=1;childLayout=tableLayout;fixedRows=1;rowLines=0;fontStyle=1;align=center;resizeLast=1;" vertex="1" parent="1">
          <mxGeometry x="25.5" y="15" width="369" height="190" as="geometry" />
        </mxCell>
        <mxCell id="ry29qnQ4L1H945Ro2DYC-2" value="" style="shape=partialRectangle;collapsible=0;dropTarget=0;pointerEvents=0;fillColor=none;points=[[0,0.5],[1,0.5]];portConstraint=eastwest;top=0;left=0;right=0;bottom=1;" vertex="1" parent="ry29qnQ4L1H945Ro2DYC-1">
          <mxGeometry y="30" width="369" height="30" as="geometry" />
        </mxCell>
        <mxCell id="ry29qnQ4L1H945Ro2DYC-3" value="PK" style="shape=partialRectangle;overflow=hidden;connectable=0;fillColor=none;top=0;left=0;bottom=0;right=0;fontStyle=1;" vertex="1" parent="ry29qnQ4L1H945Ro2DYC-2">
          <mxGeometry width="30" height="30" as="geometry">
            <mxRectangle width="30" height="30" as="alternateBounds" />
          </mxGeometry>
        </mxCell>
        <mxCell id="ry29qnQ4L1H945Ro2DYC-4" value="id BIGINT(20) UNSIGNED NOT NULL AUTO INCREMENT" style="shape=partialRectangle;overflow=hidden;connectable=0;fillColor=none;top=0;left=0;bottom=0;right=0;align=left;spacingLeft=6;fontStyle=5;" vertex="1" parent="ry29qnQ4L1H945Ro2DYC-2">
          <mxGeometry x="30" width="339" height="30" as="geometry">
            <mxRectangle width="339" height="30" as="alternateBounds" />
          </mxGeometry>
        </mxCell>
        <mxCell id="ry29qnQ4L1H945Ro2DYC-5" value="" style="shape=partialRectangle;collapsible=0;dropTarget=0;pointerEvents=0;fillColor=none;points=[[0,0.5],[1,0.5]];portConstraint=eastwest;top=0;left=0;right=0;bottom=0;" vertex="1" parent="ry29qnQ4L1H945Ro2DYC-1">
          <mxGeometry y="60" width="369" height="30" as="geometry" />
        </mxCell>
        <mxCell id="ry29qnQ4L1H945Ro2DYC-6" value="" style="shape=partialRectangle;overflow=hidden;connectable=0;fillColor=none;top=0;left=0;bottom=0;right=0;" vertex="1" parent="ry29qnQ4L1H945Ro2DYC-5">
          <mxGeometry width="30" height="30" as="geometry">
            <mxRectangle width="30" height="30" as="alternateBounds" />
          </mxGeometry>
        </mxCell>
        <mxCell id="ry29qnQ4L1H945Ro2DYC-7" value="name varchar(10) NOT NULL" style="shape=partialRectangle;overflow=hidden;connectable=0;fillColor=none;top=0;left=0;bottom=0;right=0;align=left;spacingLeft=6;" vertex="1" parent="ry29qnQ4L1H945Ro2DYC-5">
          <mxGeometry x="30" width="339" height="30" as="geometry">
            <mxRectangle width="339" height="30" as="alternateBounds" />
          </mxGeometry>
        </mxCell>
        <mxCell id="ry29qnQ4L1H945Ro2DYC-8" value="" style="shape=partialRectangle;collapsible=0;dropTarget=0;pointerEvents=0;fillColor=none;points=[[0,0.5],[1,0.5]];portConstraint=eastwest;top=0;left=0;right=0;bottom=0;" vertex="1" parent="ry29qnQ4L1H945Ro2DYC-1">
          <mxGeometry y="90" width="369" height="30" as="geometry" />
        </mxCell>
        <mxCell id="ry29qnQ4L1H945Ro2DYC-9" value="" style="shape=partialRectangle;overflow=hidden;connectable=0;fillColor=none;top=0;left=0;bottom=0;right=0;" vertex="1" parent="ry29qnQ4L1H945Ro2DYC-8">
          <mxGeometry width="30" height="30" as="geometry">
            <mxRectangle width="30" height="30" as="alternateBounds" />
          </mxGeometry>
        </mxCell>
        <mxCell id="ry29qnQ4L1H945Ro2DYC-10" value="color varchar(15) NOT NULL" style="shape=partialRectangle;overflow=hidden;connectable=0;fillColor=none;top=0;left=0;bottom=0;right=0;align=left;spacingLeft=6;" vertex="1" parent="ry29qnQ4L1H945Ro2DYC-8">
          <mxGeometry x="30" width="339" height="30" as="geometry">
            <mxRectangle width="339" height="30" as="alternateBounds" />
          </mxGeometry>
        </mxCell>
        <mxCell id="ry29qnQ4L1H945Ro2DYC-11" value="" style="shape=partialRectangle;collapsible=0;dropTarget=0;pointerEvents=0;fillColor=none;points=[[0,0.5],[1,0.5]];portConstraint=eastwest;top=0;left=0;right=0;bottom=0;" vertex="1" parent="ry29qnQ4L1H945Ro2DYC-1">
          <mxGeometry y="120" width="369" height="30" as="geometry" />
        </mxCell>
        <mxCell id="ry29qnQ4L1H945Ro2DYC-12" value="" style="shape=partialRectangle;overflow=hidden;connectable=0;fillColor=none;top=0;left=0;bottom=0;right=0;" vertex="1" parent="ry29qnQ4L1H945Ro2DYC-11">
          <mxGeometry width="30" height="30" as="geometry">
            <mxRectangle width="30" height="30" as="alternateBounds" />
          </mxGeometry>
        </mxCell>
        <mxCell id="ry29qnQ4L1H945Ro2DYC-13" value="created_at timestamp NOT NULL DEFAULT NOWÂ " style="shape=partialRectangle;overflow=hidden;connectable=0;fillColor=none;top=0;left=0;bottom=0;right=0;align=left;spacingLeft=6;" vertex="1" parent="ry29qnQ4L1H945Ro2DYC-11">
          <mxGeometry x="30" width="339" height="30" as="geometry">
            <mxRectangle width="339" height="30" as="alternateBounds" />
          </mxGeometry>
        </mxCell>
        <mxCell id="ry29qnQ4L1H945Ro2DYC-14" value="" style="shape=partialRectangle;collapsible=0;dropTarget=0;pointerEvents=0;fillColor=none;points=[[0,0.5],[1,0.5]];portConstraint=eastwest;top=0;left=0;right=0;bottom=0;" vertex="1" parent="ry29qnQ4L1H945Ro2DYC-1">
          <mxGeometry y="150" width="369" height="30" as="geometry" />
        </mxCell>
        <mxCell id="ry29qnQ4L1H945Ro2DYC-15" value="" style="shape=partialRectangle;overflow=hidden;connectable=0;fillColor=none;top=0;left=0;bottom=0;right=0;" vertex="1" parent="ry29qnQ4L1H945Ro2DYC-14">
          <mxGeometry width="30" height="30" as="geometry">
            <mxRectangle width="30" height="30" as="alternateBounds" />
          </mxGeometry>
        </mxCell>
        <mxCell id="ry29qnQ4L1H945Ro2DYC-16" value="update_at timestamp NOT NULL DEFAULT NOW" style="shape=partialRectangle;overflow=hidden;connectable=0;fillColor=none;top=0;left=0;bottom=0;right=0;align=left;spacingLeft=6;" vertex="1" parent="ry29qnQ4L1H945Ro2DYC-14">
          <mxGeometry x="30" width="339" height="30" as="geometry">
            <mxRectangle width="339" height="30" as="alternateBounds" />
          </mxGeometry>
        </mxCell>
        <mxCell id="ry29qnQ4L1H945Ro2DYC-17" value="Trains" style="shape=table;startSize=30;container=1;collapsible=1;childLayout=tableLayout;fixedRows=1;rowLines=0;fontStyle=1;align=center;resizeLast=1;" vertex="1" parent="1">
          <mxGeometry x="520" width="310" height="220" as="geometry" />
        </mxCell>
        <mxCell id="ry29qnQ4L1H945Ro2DYC-18" value="" style="shape=partialRectangle;collapsible=0;dropTarget=0;pointerEvents=0;fillColor=none;points=[[0,0.5],[1,0.5]];portConstraint=eastwest;top=0;left=0;right=0;bottom=1;" vertex="1" parent="ry29qnQ4L1H945Ro2DYC-17">
          <mxGeometry y="30" width="310" height="30" as="geometry" />
        </mxCell>
        <mxCell id="ry29qnQ4L1H945Ro2DYC-19" value="PK" style="shape=partialRectangle;overflow=hidden;connectable=0;fillColor=none;top=0;left=0;bottom=0;right=0;fontStyle=1;" vertex="1" parent="ry29qnQ4L1H945Ro2DYC-18">
          <mxGeometry width="30" height="30" as="geometry">
            <mxRectangle width="30" height="30" as="alternateBounds" />
          </mxGeometry>
        </mxCell>
        <mxCell id="ry29qnQ4L1H945Ro2DYC-20" value="serial_number varchar(10) NOT NULL " style="shape=partialRectangle;overflow=hidden;connectable=0;fillColor=none;top=0;left=0;bottom=0;right=0;align=left;spacingLeft=6;fontStyle=5;" vertex="1" parent="ry29qnQ4L1H945Ro2DYC-18">
          <mxGeometry x="30" width="280" height="30" as="geometry">
            <mxRectangle width="280" height="30" as="alternateBounds" />
          </mxGeometry>
        </mxCell>
        <mxCell id="ry29qnQ4L1H945Ro2DYC-21" value="" style="shape=partialRectangle;collapsible=0;dropTarget=0;pointerEvents=0;fillColor=none;points=[[0,0.5],[1,0.5]];portConstraint=eastwest;top=0;left=0;right=0;bottom=0;" vertex="1" parent="ry29qnQ4L1H945Ro2DYC-17">
          <mxGeometry y="60" width="310" height="30" as="geometry" />
        </mxCell>
        <mxCell id="ry29qnQ4L1H945Ro2DYC-22" value="FK1" style="shape=partialRectangle;overflow=hidden;connectable=0;fillColor=none;top=0;left=0;bottom=0;right=0;" vertex="1" parent="ry29qnQ4L1H945Ro2DYC-21">
          <mxGeometry width="30" height="30" as="geometry">
            <mxRectangle width="30" height="30" as="alternateBounds" />
          </mxGeometry>
        </mxCell>
        <mxCell id="ry29qnQ4L1H945Ro2DYC-23" value="line_id int BIGINT(20) UNSIGNED NOT NULL" style="shape=partialRectangle;overflow=hidden;connectable=0;fillColor=none;top=0;left=0;bottom=0;right=0;align=left;spacingLeft=6;" vertex="1" parent="ry29qnQ4L1H945Ro2DYC-21">
          <mxGeometry x="30" width="280" height="30" as="geometry">
            <mxRectangle width="280" height="30" as="alternateBounds" />
          </mxGeometry>
        </mxCell>
        <mxCell id="ry29qnQ4L1H945Ro2DYC-24" value="" style="shape=partialRectangle;collapsible=0;dropTarget=0;pointerEvents=0;fillColor=none;points=[[0,0.5],[1,0.5]];portConstraint=eastwest;top=0;left=0;right=0;bottom=0;" vertex="1" parent="ry29qnQ4L1H945Ro2DYC-17">
          <mxGeometry y="90" width="310" height="30" as="geometry" />
        </mxCell>
        <mxCell id="ry29qnQ4L1H945Ro2DYC-25" value="" style="shape=partialRectangle;overflow=hidden;connectable=0;fillColor=none;top=0;left=0;bottom=0;right=0;" vertex="1" parent="ry29qnQ4L1H945Ro2DYC-24">
          <mxGeometry width="30" height="30" as="geometry">
            <mxRectangle width="30" height="30" as="alternateBounds" />
          </mxGeometry>
        </mxCell>
        <mxCell id="ry29qnQ4L1H945Ro2DYC-26" value="type tinyint(4) NOT NULL" style="shape=partialRectangle;overflow=hidden;connectable=0;fillColor=none;top=0;left=0;bottom=0;right=0;align=left;spacingLeft=6;" vertex="1" parent="ry29qnQ4L1H945Ro2DYC-24">
          <mxGeometry x="30" width="280" height="30" as="geometry">
            <mxRectangle width="280" height="30" as="alternateBounds" />
          </mxGeometry>
        </mxCell>
        <mxCell id="ry29qnQ4L1H945Ro2DYC-27" value="" style="shape=partialRectangle;collapsible=0;dropTarget=0;pointerEvents=0;fillColor=none;points=[[0,0.5],[1,0.5]];portConstraint=eastwest;top=0;left=0;right=0;bottom=0;" vertex="1" parent="ry29qnQ4L1H945Ro2DYC-17">
          <mxGeometry y="120" width="310" height="30" as="geometry" />
        </mxCell>
        <mxCell id="ry29qnQ4L1H945Ro2DYC-28" value="" style="shape=partialRectangle;overflow=hidden;connectable=0;fillColor=none;top=0;left=0;bottom=0;right=0;" vertex="1" parent="ry29qnQ4L1H945Ro2DYC-27">
          <mxGeometry width="30" height="30" as="geometry">
            <mxRectangle width="30" height="30" as="alternateBounds" />
          </mxGeometry>
        </mxCell>
        <mxCell id="ry29qnQ4L1H945Ro2DYC-29" value="year INT(4) NOT NULL" style="shape=partialRectangle;overflow=hidden;connectable=0;fillColor=none;top=0;left=0;bottom=0;right=0;align=left;spacingLeft=6;" vertex="1" parent="ry29qnQ4L1H945Ro2DYC-27">
          <mxGeometry x="30" width="280" height="30" as="geometry">
            <mxRectangle width="280" height="30" as="alternateBounds" />
          </mxGeometry>
        </mxCell>
        <mxCell id="ry29qnQ4L1H945Ro2DYC-30" value="" style="shape=partialRectangle;collapsible=0;dropTarget=0;pointerEvents=0;fillColor=none;points=[[0,0.5],[1,0.5]];portConstraint=eastwest;top=0;left=0;right=0;bottom=0;" vertex="1" parent="ry29qnQ4L1H945Ro2DYC-17">
          <mxGeometry y="150" width="310" height="30" as="geometry" />
        </mxCell>
        <mxCell id="ry29qnQ4L1H945Ro2DYC-31" value="" style="shape=partialRectangle;overflow=hidden;connectable=0;fillColor=none;top=0;left=0;bottom=0;right=0;" vertex="1" parent="ry29qnQ4L1H945Ro2DYC-30">
          <mxGeometry width="30" height="30" as="geometry">
            <mxRectangle width="30" height="30" as="alternateBounds" />
          </mxGeometry>
        </mxCell>
        <mxCell id="ry29qnQ4L1H945Ro2DYC-32" value="created_at timestamp NOT NULL DEFAULT NOWÂ " style="shape=partialRectangle;overflow=hidden;connectable=0;fillColor=none;top=0;left=0;bottom=0;right=0;align=left;spacingLeft=6;" vertex="1" parent="ry29qnQ4L1H945Ro2DYC-30">
          <mxGeometry x="30" width="280" height="30" as="geometry">
            <mxRectangle width="280" height="30" as="alternateBounds" />
          </mxGeometry>
        </mxCell>
        <mxCell id="ry29qnQ4L1H945Ro2DYC-33" value="" style="shape=partialRectangle;collapsible=0;dropTarget=0;pointerEvents=0;fillColor=none;points=[[0,0.5],[1,0.5]];portConstraint=eastwest;top=0;left=0;right=0;bottom=0;" vertex="1" parent="ry29qnQ4L1H945Ro2DYC-17">
          <mxGeometry y="180" width="310" height="30" as="geometry" />
        </mxCell>
        <mxCell id="ry29qnQ4L1H945Ro2DYC-34" value="" style="shape=partialRectangle;overflow=hidden;connectable=0;fillColor=none;top=0;left=0;bottom=0;right=0;" vertex="1" parent="ry29qnQ4L1H945Ro2DYC-33">
          <mxGeometry width="30" height="30" as="geometry">
            <mxRectangle width="30" height="30" as="alternateBounds" />
          </mxGeometry>
        </mxCell>
        <mxCell id="ry29qnQ4L1H945Ro2DYC-35" value="update_at timestamp NOT NULL DEFAULT NOW" style="shape=partialRectangle;overflow=hidden;connectable=0;fillColor=none;top=0;left=0;bottom=0;right=0;align=left;spacingLeft=6;" vertex="1" parent="ry29qnQ4L1H945Ro2DYC-33">
          <mxGeometry x="30" width="280" height="30" as="geometry">
            <mxRectangle width="280" height="30" as="alternateBounds" />
          </mxGeometry>
        </mxCell>
        <mxCell id="ry29qnQ4L1H945Ro2DYC-36" value="station" style="shape=table;startSize=30;container=1;collapsible=1;childLayout=tableLayout;fixedRows=1;rowLines=0;fontStyle=1;align=center;resizeLast=1;" vertex="1" parent="1">
          <mxGeometry x="30" y="565" width="360" height="160" as="geometry" />
        </mxCell>
        <mxCell id="ry29qnQ4L1H945Ro2DYC-37" value="" style="shape=partialRectangle;collapsible=0;dropTarget=0;pointerEvents=0;fillColor=none;points=[[0,0.5],[1,0.5]];portConstraint=eastwest;top=0;left=0;right=0;bottom=1;" vertex="1" parent="ry29qnQ4L1H945Ro2DYC-36">
          <mxGeometry y="30" width="360" height="30" as="geometry" />
        </mxCell>
        <mxCell id="ry29qnQ4L1H945Ro2DYC-38" value="PK" style="shape=partialRectangle;overflow=hidden;connectable=0;fillColor=none;top=0;left=0;bottom=0;right=0;fontStyle=1;" vertex="1" parent="ry29qnQ4L1H945Ro2DYC-37">
          <mxGeometry width="30" height="30" as="geometry">
            <mxRectangle width="30" height="30" as="alternateBounds" />
          </mxGeometry>
        </mxCell>
        <mxCell id="ry29qnQ4L1H945Ro2DYC-39" value="id BIGINT(20) UNSIGNED NOT NULL AUTO INCREMENT" style="shape=partialRectangle;overflow=hidden;connectable=0;fillColor=none;top=0;left=0;bottom=0;right=0;align=left;spacingLeft=6;fontStyle=5;" vertex="1" parent="ry29qnQ4L1H945Ro2DYC-37">
          <mxGeometry x="30" width="330" height="30" as="geometry">
            <mxRectangle width="330" height="30" as="alternateBounds" />
          </mxGeometry>
        </mxCell>
        <mxCell id="ry29qnQ4L1H945Ro2DYC-40" value="" style="shape=partialRectangle;collapsible=0;dropTarget=0;pointerEvents=0;fillColor=none;points=[[0,0.5],[1,0.5]];portConstraint=eastwest;top=0;left=0;right=0;bottom=0;" vertex="1" parent="ry29qnQ4L1H945Ro2DYC-36">
          <mxGeometry y="60" width="360" height="30" as="geometry" />
        </mxCell>
        <mxCell id="ry29qnQ4L1H945Ro2DYC-41" value="" style="shape=partialRectangle;overflow=hidden;connectable=0;fillColor=none;top=0;left=0;bottom=0;right=0;" vertex="1" parent="ry29qnQ4L1H945Ro2DYC-40">
          <mxGeometry width="30" height="30" as="geometry">
            <mxRectangle width="30" height="30" as="alternateBounds" />
          </mxGeometry>
        </mxCell>
        <mxCell id="ry29qnQ4L1H945Ro2DYC-42" value="name varchar(50) NOT NULL" style="shape=partialRectangle;overflow=hidden;connectable=0;fillColor=none;top=0;left=0;bottom=0;right=0;align=left;spacingLeft=6;" vertex="1" parent="ry29qnQ4L1H945Ro2DYC-40">
          <mxGeometry x="30" width="330" height="30" as="geometry">
            <mxRectangle width="330" height="30" as="alternateBounds" />
          </mxGeometry>
        </mxCell>
        <mxCell id="ry29qnQ4L1H945Ro2DYC-43" value="" style="shape=partialRectangle;collapsible=0;dropTarget=0;pointerEvents=0;fillColor=none;points=[[0,0.5],[1,0.5]];portConstraint=eastwest;top=0;left=0;right=0;bottom=0;" vertex="1" parent="ry29qnQ4L1H945Ro2DYC-36">
          <mxGeometry y="90" width="360" height="30" as="geometry" />
        </mxCell>
        <mxCell id="ry29qnQ4L1H945Ro2DYC-44" value="" style="shape=partialRectangle;overflow=hidden;connectable=0;fillColor=none;top=0;left=0;bottom=0;right=0;" vertex="1" parent="ry29qnQ4L1H945Ro2DYC-43">
          <mxGeometry width="30" height="30" as="geometry">
            <mxRectangle width="30" height="30" as="alternateBounds" />
          </mxGeometry>
        </mxCell>
        <mxCell id="ry29qnQ4L1H945Ro2DYC-45" value="created_at timestamp NOT NULL DEFAULT NOWÂ " style="shape=partialRectangle;overflow=hidden;connectable=0;fillColor=none;top=0;left=0;bottom=0;right=0;align=left;spacingLeft=6;" vertex="1" parent="ry29qnQ4L1H945Ro2DYC-43">
          <mxGeometry x="30" width="330" height="30" as="geometry">
            <mxRectangle width="330" height="30" as="alternateBounds" />
          </mxGeometry>
        </mxCell>
        <mxCell id="ry29qnQ4L1H945Ro2DYC-59" value="" style="shape=partialRectangle;collapsible=0;dropTarget=0;pointerEvents=0;fillColor=none;points=[[0,0.5],[1,0.5]];portConstraint=eastwest;top=0;left=0;right=0;bottom=0;" vertex="1" parent="ry29qnQ4L1H945Ro2DYC-36">
          <mxGeometry y="120" width="360" height="30" as="geometry" />
        </mxCell>
        <mxCell id="ry29qnQ4L1H945Ro2DYC-60" value="" style="shape=partialRectangle;overflow=hidden;connectable=0;fillColor=none;top=0;left=0;bottom=0;right=0;" vertex="1" parent="ry29qnQ4L1H945Ro2DYC-59">
          <mxGeometry width="30" height="30" as="geometry">
            <mxRectangle width="30" height="30" as="alternateBounds" />
          </mxGeometry>
        </mxCell>
        <mxCell id="ry29qnQ4L1H945Ro2DYC-61" value="update_at timestamp NOT NULL DEFAULT NOW" style="shape=partialRectangle;overflow=hidden;connectable=0;fillColor=none;top=0;left=0;bottom=0;right=0;align=left;spacingLeft=6;" vertex="1" parent="ry29qnQ4L1H945Ro2DYC-59">
          <mxGeometry x="30" width="330" height="30" as="geometry">
            <mxRectangle width="330" height="30" as="alternateBounds" />
          </mxGeometry>
        </mxCell>
        <mxCell id="ry29qnQ4L1H945Ro2DYC-46" value="Locations" style="shape=table;startSize=30;container=1;collapsible=1;childLayout=tableLayout;fixedRows=1;rowLines=0;fontStyle=1;align=center;resizeLast=1;" vertex="1" parent="1">
          <mxGeometry x="520" y="535" width="365" height="190" as="geometry" />
        </mxCell>
        <mxCell id="ry29qnQ4L1H945Ro2DYC-47" value="" style="shape=partialRectangle;collapsible=0;dropTarget=0;pointerEvents=0;fillColor=none;points=[[0,0.5],[1,0.5]];portConstraint=eastwest;top=0;left=0;right=0;bottom=1;" vertex="1" parent="ry29qnQ4L1H945Ro2DYC-46">
          <mxGeometry y="30" width="365" height="30" as="geometry" />
        </mxCell>
        <mxCell id="ry29qnQ4L1H945Ro2DYC-48" value="PK" style="shape=partialRectangle;overflow=hidden;connectable=0;fillColor=none;top=0;left=0;bottom=0;right=0;fontStyle=1;" vertex="1" parent="ry29qnQ4L1H945Ro2DYC-47">
          <mxGeometry width="30" height="30" as="geometry">
            <mxRectangle width="30" height="30" as="alternateBounds" />
          </mxGeometry>
        </mxCell>
        <mxCell id="ry29qnQ4L1H945Ro2DYC-49" value="id BIGINT(20) UNSIGNED NOT NULL AUTO INCREMENT" style="shape=partialRectangle;overflow=hidden;connectable=0;fillColor=none;top=0;left=0;bottom=0;right=0;align=left;spacingLeft=6;fontStyle=5;" vertex="1" parent="ry29qnQ4L1H945Ro2DYC-47">
          <mxGeometry x="30" width="335" height="30" as="geometry">
            <mxRectangle width="335" height="30" as="alternateBounds" />
          </mxGeometry>
        </mxCell>
        <mxCell id="ry29qnQ4L1H945Ro2DYC-50" value="" style="shape=partialRectangle;collapsible=0;dropTarget=0;pointerEvents=0;fillColor=none;points=[[0,0.5],[1,0.5]];portConstraint=eastwest;top=0;left=0;right=0;bottom=0;" vertex="1" parent="ry29qnQ4L1H945Ro2DYC-46">
          <mxGeometry y="60" width="365" height="30" as="geometry" />
        </mxCell>
        <mxCell id="ry29qnQ4L1H945Ro2DYC-51" value="FK1" style="shape=partialRectangle;overflow=hidden;connectable=0;fillColor=none;top=0;left=0;bottom=0;right=0;" vertex="1" parent="ry29qnQ4L1H945Ro2DYC-50">
          <mxGeometry width="30" height="30" as="geometry">
            <mxRectangle width="30" height="30" as="alternateBounds" />
          </mxGeometry>
        </mxCell>
        <mxCell id="ry29qnQ4L1H945Ro2DYC-52" value="station_id BIGINT(20) NOT NULL" style="shape=partialRectangle;overflow=hidden;connectable=0;fillColor=none;top=0;left=0;bottom=0;right=0;align=left;spacingLeft=6;" vertex="1" parent="ry29qnQ4L1H945Ro2DYC-50">
          <mxGeometry x="30" width="335" height="30" as="geometry">
            <mxRectangle width="335" height="30" as="alternateBounds" />
          </mxGeometry>
        </mxCell>
        <mxCell id="ry29qnQ4L1H945Ro2DYC-53" value="" style="shape=partialRectangle;collapsible=0;dropTarget=0;pointerEvents=0;fillColor=none;points=[[0,0.5],[1,0.5]];portConstraint=eastwest;top=0;left=0;right=0;bottom=0;" vertex="1" parent="ry29qnQ4L1H945Ro2DYC-46">
          <mxGeometry y="90" width="365" height="30" as="geometry" />
        </mxCell>
        <mxCell id="ry29qnQ4L1H945Ro2DYC-54" value="" style="shape=partialRectangle;overflow=hidden;connectable=0;fillColor=none;top=0;left=0;bottom=0;right=0;" vertex="1" parent="ry29qnQ4L1H945Ro2DYC-53">
          <mxGeometry width="30" height="30" as="geometry">
            <mxRectangle width="30" height="30" as="alternateBounds" />
          </mxGeometry>
        </mxCell>
        <mxCell id="ry29qnQ4L1H945Ro2DYC-55" value="location point NOT NULL" style="shape=partialRectangle;overflow=hidden;connectable=0;fillColor=none;top=0;left=0;bottom=0;right=0;align=left;spacingLeft=6;" vertex="1" parent="ry29qnQ4L1H945Ro2DYC-53">
          <mxGeometry x="30" width="335" height="30" as="geometry">
            <mxRectangle width="335" height="30" as="alternateBounds" />
          </mxGeometry>
        </mxCell>
        <mxCell id="ry29qnQ4L1H945Ro2DYC-56" value="" style="shape=partialRectangle;collapsible=0;dropTarget=0;pointerEvents=0;fillColor=none;points=[[0,0.5],[1,0.5]];portConstraint=eastwest;top=0;left=0;right=0;bottom=0;" vertex="1" parent="ry29qnQ4L1H945Ro2DYC-46">
          <mxGeometry y="120" width="365" height="30" as="geometry" />
        </mxCell>
        <mxCell id="ry29qnQ4L1H945Ro2DYC-57" value="" style="shape=partialRectangle;overflow=hidden;connectable=0;fillColor=none;top=0;left=0;bottom=0;right=0;" vertex="1" parent="ry29qnQ4L1H945Ro2DYC-56">
          <mxGeometry width="30" height="30" as="geometry">
            <mxRectangle width="30" height="30" as="alternateBounds" />
          </mxGeometry>
        </mxCell>
        <mxCell id="ry29qnQ4L1H945Ro2DYC-58" value="created_at timestamp NOT NULL DEFAULT NOWÂ " style="shape=partialRectangle;overflow=hidden;connectable=0;fillColor=none;top=0;left=0;bottom=0;right=0;align=left;spacingLeft=6;" vertex="1" parent="ry29qnQ4L1H945Ro2DYC-56">
          <mxGeometry x="30" width="335" height="30" as="geometry">
            <mxRectangle width="335" height="30" as="alternateBounds" />
          </mxGeometry>
        </mxCell>
        <mxCell id="ry29qnQ4L1H945Ro2DYC-62" value="" style="shape=partialRectangle;collapsible=0;dropTarget=0;pointerEvents=0;fillColor=none;points=[[0,0.5],[1,0.5]];portConstraint=eastwest;top=0;left=0;right=0;bottom=0;" vertex="1" parent="ry29qnQ4L1H945Ro2DYC-46">
          <mxGeometry y="150" width="365" height="30" as="geometry" />
        </mxCell>
        <mxCell id="ry29qnQ4L1H945Ro2DYC-63" value="" style="shape=partialRectangle;overflow=hidden;connectable=0;fillColor=none;top=0;left=0;bottom=0;right=0;" vertex="1" parent="ry29qnQ4L1H945Ro2DYC-62">
          <mxGeometry width="30" height="30" as="geometry">
            <mxRectangle width="30" height="30" as="alternateBounds" />
          </mxGeometry>
        </mxCell>
        <mxCell id="ry29qnQ4L1H945Ro2DYC-64" value="update_at timestamp NOT NULL DEFAULT NOW" style="shape=partialRectangle;overflow=hidden;connectable=0;fillColor=none;top=0;left=0;bottom=0;right=0;align=left;spacingLeft=6;" vertex="1" parent="ry29qnQ4L1H945Ro2DYC-62">
          <mxGeometry x="30" width="335" height="30" as="geometry">
            <mxRectangle width="335" height="30" as="alternateBounds" />
          </mxGeometry>
        </mxCell>
        <mxCell id="ry29qnQ4L1H945Ro2DYC-65" value="Drivers" style="shape=table;startSize=30;container=1;collapsible=1;childLayout=tableLayout;fixedRows=1;rowLines=0;fontStyle=1;align=center;resizeLast=1;" vertex="1" parent="1">
          <mxGeometry y="815" width="365" height="190" as="geometry" />
        </mxCell>
        <mxCell id="ry29qnQ4L1H945Ro2DYC-66" value="" style="shape=partialRectangle;collapsible=0;dropTarget=0;pointerEvents=0;fillColor=none;points=[[0,0.5],[1,0.5]];portConstraint=eastwest;top=0;left=0;right=0;bottom=1;" vertex="1" parent="ry29qnQ4L1H945Ro2DYC-65">
          <mxGeometry y="30" width="365" height="30" as="geometry" />
        </mxCell>
        <mxCell id="ry29qnQ4L1H945Ro2DYC-67" value="PK" style="shape=partialRectangle;overflow=hidden;connectable=0;fillColor=none;top=0;left=0;bottom=0;right=0;fontStyle=1;" vertex="1" parent="ry29qnQ4L1H945Ro2DYC-66">
          <mxGeometry width="30" height="30" as="geometry">
            <mxRectangle width="30" height="30" as="alternateBounds" />
          </mxGeometry>
        </mxCell>
        <mxCell id="ry29qnQ4L1H945Ro2DYC-68" value="id BIGINT(20) UNSIGNED NOT NULL AUTO INCREMENT" style="shape=partialRectangle;overflow=hidden;connectable=0;fillColor=none;top=0;left=0;bottom=0;right=0;align=left;spacingLeft=6;fontStyle=5;" vertex="1" parent="ry29qnQ4L1H945Ro2DYC-66">
          <mxGeometry x="30" width="335" height="30" as="geometry">
            <mxRectangle width="335" height="30" as="alternateBounds" />
          </mxGeometry>
        </mxCell>
        <mxCell id="ry29qnQ4L1H945Ro2DYC-69" value="" style="shape=partialRectangle;collapsible=0;dropTarget=0;pointerEvents=0;fillColor=none;points=[[0,0.5],[1,0.5]];portConstraint=eastwest;top=0;left=0;right=0;bottom=0;" vertex="1" parent="ry29qnQ4L1H945Ro2DYC-65">
          <mxGeometry y="60" width="365" height="30" as="geometry" />
        </mxCell>
        <mxCell id="ry29qnQ4L1H945Ro2DYC-70" value="FK1" style="shape=partialRectangle;overflow=hidden;connectable=0;fillColor=none;top=0;left=0;bottom=0;right=0;" vertex="1" parent="ry29qnQ4L1H945Ro2DYC-69">
          <mxGeometry width="30" height="30" as="geometry">
            <mxRectangle width="30" height="30" as="alternateBounds" />
          </mxGeometry>
        </mxCell>
        <mxCell id="ry29qnQ4L1H945Ro2DYC-71" value="name varchar(20) NOT NULL" style="shape=partialRectangle;overflow=hidden;connectable=0;fillColor=none;top=0;left=0;bottom=0;right=0;align=left;spacingLeft=6;" vertex="1" parent="ry29qnQ4L1H945Ro2DYC-69">
          <mxGeometry x="30" width="335" height="30" as="geometry">
            <mxRectangle width="335" height="30" as="alternateBounds" />
          </mxGeometry>
        </mxCell>
        <mxCell id="ry29qnQ4L1H945Ro2DYC-72" value="" style="shape=partialRectangle;collapsible=0;dropTarget=0;pointerEvents=0;fillColor=none;points=[[0,0.5],[1,0.5]];portConstraint=eastwest;top=0;left=0;right=0;bottom=0;" vertex="1" parent="ry29qnQ4L1H945Ro2DYC-65">
          <mxGeometry y="90" width="365" height="30" as="geometry" />
        </mxCell>
        <mxCell id="ry29qnQ4L1H945Ro2DYC-73" value="" style="shape=partialRectangle;overflow=hidden;connectable=0;fillColor=none;top=0;left=0;bottom=0;right=0;" vertex="1" parent="ry29qnQ4L1H945Ro2DYC-72">
          <mxGeometry width="30" height="30" as="geometry">
            <mxRectangle width="30" height="30" as="alternateBounds" />
          </mxGeometry>
        </mxCell>
        <mxCell id="ry29qnQ4L1H945Ro2DYC-74" value="status boolean NOT NULL DEFAULT false" style="shape=partialRectangle;overflow=hidden;connectable=0;fillColor=none;top=0;left=0;bottom=0;right=0;align=left;spacingLeft=6;" vertex="1" parent="ry29qnQ4L1H945Ro2DYC-72">
          <mxGeometry x="30" width="335" height="30" as="geometry">
            <mxRectangle width="335" height="30" as="alternateBounds" />
          </mxGeometry>
        </mxCell>
        <mxCell id="ry29qnQ4L1H945Ro2DYC-75" value="" style="shape=partialRectangle;collapsible=0;dropTarget=0;pointerEvents=0;fillColor=none;points=[[0,0.5],[1,0.5]];portConstraint=eastwest;top=0;left=0;right=0;bottom=0;" vertex="1" parent="ry29qnQ4L1H945Ro2DYC-65">
          <mxGeometry y="120" width="365" height="30" as="geometry" />
        </mxCell>
        <mxCell id="ry29qnQ4L1H945Ro2DYC-76" value="" style="shape=partialRectangle;overflow=hidden;connectable=0;fillColor=none;top=0;left=0;bottom=0;right=0;" vertex="1" parent="ry29qnQ4L1H945Ro2DYC-75">
          <mxGeometry width="30" height="30" as="geometry">
            <mxRectangle width="30" height="30" as="alternateBounds" />
          </mxGeometry>
        </mxCell>
        <mxCell id="ry29qnQ4L1H945Ro2DYC-77" value="created_at timestamp NOT NULL DEFAULT NOWÂ " style="shape=partialRectangle;overflow=hidden;connectable=0;fillColor=none;top=0;left=0;bottom=0;right=0;align=left;spacingLeft=6;" vertex="1" parent="ry29qnQ4L1H945Ro2DYC-75">
          <mxGeometry x="30" width="335" height="30" as="geometry">
            <mxRectangle width="335" height="30" as="alternateBounds" />
          </mxGeometry>
        </mxCell>
        <mxCell id="ry29qnQ4L1H945Ro2DYC-78" value="" style="shape=partialRectangle;collapsible=0;dropTarget=0;pointerEvents=0;fillColor=none;points=[[0,0.5],[1,0.5]];portConstraint=eastwest;top=0;left=0;right=0;bottom=0;" vertex="1" parent="ry29qnQ4L1H945Ro2DYC-65">
          <mxGeometry y="150" width="365" height="30" as="geometry" />
        </mxCell>
        <mxCell id="ry29qnQ4L1H945Ro2DYC-79" value="" style="shape=partialRectangle;overflow=hidden;connectable=0;fillColor=none;top=0;left=0;bottom=0;right=0;" vertex="1" parent="ry29qnQ4L1H945Ro2DYC-78">
          <mxGeometry width="30" height="30" as="geometry">
            <mxRectangle width="30" height="30" as="alternateBounds" />
          </mxGeometry>
        </mxCell>
        <mxCell id="ry29qnQ4L1H945Ro2DYC-80" value="update_at timestamp NOT NULL DEFAULT NOW" style="shape=partialRectangle;overflow=hidden;connectable=0;fillColor=none;top=0;left=0;bottom=0;right=0;align=left;spacingLeft=6;" vertex="1" parent="ry29qnQ4L1H945Ro2DYC-78">
          <mxGeometry x="30" width="335" height="30" as="geometry">
            <mxRectangle width="335" height="30" as="alternateBounds" />
          </mxGeometry>
        </mxCell>
        <mxCell id="ry29qnQ4L1H945Ro2DYC-100" value="Active_Drivers" style="shape=table;startSize=30;container=1;collapsible=1;childLayout=tableLayout;fixedRows=1;rowLines=0;fontStyle=1;align=center;resizeLast=1;" vertex="1" parent="1">
          <mxGeometry x="495" y="845" width="360" height="160" as="geometry" />
        </mxCell>
        <mxCell id="ry29qnQ4L1H945Ro2DYC-101" value="" style="shape=partialRectangle;collapsible=0;dropTarget=0;pointerEvents=0;fillColor=none;points=[[0,0.5],[1,0.5]];portConstraint=eastwest;top=0;left=0;right=0;bottom=1;" vertex="1" parent="ry29qnQ4L1H945Ro2DYC-100">
          <mxGeometry y="30" width="360" height="30" as="geometry" />
        </mxCell>
        <mxCell id="ry29qnQ4L1H945Ro2DYC-102" value="PK" style="shape=partialRectangle;overflow=hidden;connectable=0;fillColor=none;top=0;left=0;bottom=0;right=0;fontStyle=1;" vertex="1" parent="ry29qnQ4L1H945Ro2DYC-101">
          <mxGeometry width="30" height="30" as="geometry">
            <mxRectangle width="30" height="30" as="alternateBounds" />
          </mxGeometry>
        </mxCell>
        <mxCell id="ry29qnQ4L1H945Ro2DYC-103" value="id BIGINT(20) UNSIGNED NOT NULL AUTO INCREMENT" style="shape=partialRectangle;overflow=hidden;connectable=0;fillColor=none;top=0;left=0;bottom=0;right=0;align=left;spacingLeft=6;fontStyle=5;" vertex="1" parent="ry29qnQ4L1H945Ro2DYC-101">
          <mxGeometry x="30" width="330" height="30" as="geometry">
            <mxRectangle width="330" height="30" as="alternateBounds" />
          </mxGeometry>
        </mxCell>
        <mxCell id="ry29qnQ4L1H945Ro2DYC-104" value="" style="shape=partialRectangle;collapsible=0;dropTarget=0;pointerEvents=0;fillColor=none;points=[[0,0.5],[1,0.5]];portConstraint=eastwest;top=0;left=0;right=0;bottom=0;" vertex="1" parent="ry29qnQ4L1H945Ro2DYC-100">
          <mxGeometry y="60" width="360" height="30" as="geometry" />
        </mxCell>
        <mxCell id="ry29qnQ4L1H945Ro2DYC-105" value="FK1" style="shape=partialRectangle;overflow=hidden;connectable=0;fillColor=none;top=0;left=0;bottom=0;right=0;" vertex="1" parent="ry29qnQ4L1H945Ro2DYC-104">
          <mxGeometry width="30" height="30" as="geometry">
            <mxRectangle width="30" height="30" as="alternateBounds" />
          </mxGeometry>
        </mxCell>
        <mxCell id="ry29qnQ4L1H945Ro2DYC-106" value="driver_id BIGINT(20) NOT NULL" style="shape=partialRectangle;overflow=hidden;connectable=0;fillColor=none;top=0;left=0;bottom=0;right=0;align=left;spacingLeft=6;" vertex="1" parent="ry29qnQ4L1H945Ro2DYC-104">
          <mxGeometry x="30" width="330" height="30" as="geometry">
            <mxRectangle width="330" height="30" as="alternateBounds" />
          </mxGeometry>
        </mxCell>
        <mxCell id="ry29qnQ4L1H945Ro2DYC-107" value="" style="shape=partialRectangle;collapsible=0;dropTarget=0;pointerEvents=0;fillColor=none;points=[[0,0.5],[1,0.5]];portConstraint=eastwest;top=0;left=0;right=0;bottom=0;" vertex="1" parent="ry29qnQ4L1H945Ro2DYC-100">
          <mxGeometry y="90" width="360" height="30" as="geometry" />
        </mxCell>
        <mxCell id="ry29qnQ4L1H945Ro2DYC-108" value="" style="shape=partialRectangle;overflow=hidden;connectable=0;fillColor=none;top=0;left=0;bottom=0;right=0;" vertex="1" parent="ry29qnQ4L1H945Ro2DYC-107">
          <mxGeometry width="30" height="30" as="geometry">
            <mxRectangle width="30" height="30" as="alternateBounds" />
          </mxGeometry>
        </mxCell>
        <mxCell id="ry29qnQ4L1H945Ro2DYC-109" value="created_at timestamp NOT NULL DEFAULT NOWÂ " style="shape=partialRectangle;overflow=hidden;connectable=0;fillColor=none;top=0;left=0;bottom=0;right=0;align=left;spacingLeft=6;" vertex="1" parent="ry29qnQ4L1H945Ro2DYC-107">
          <mxGeometry x="30" width="330" height="30" as="geometry">
            <mxRectangle width="330" height="30" as="alternateBounds" />
          </mxGeometry>
        </mxCell>
        <mxCell id="ry29qnQ4L1H945Ro2DYC-110" value="" style="shape=partialRectangle;collapsible=0;dropTarget=0;pointerEvents=0;fillColor=none;points=[[0,0.5],[1,0.5]];portConstraint=eastwest;top=0;left=0;right=0;bottom=0;" vertex="1" parent="ry29qnQ4L1H945Ro2DYC-100">
          <mxGeometry y="120" width="360" height="30" as="geometry" />
        </mxCell>
        <mxCell id="ry29qnQ4L1H945Ro2DYC-111" value="" style="shape=partialRectangle;overflow=hidden;connectable=0;fillColor=none;top=0;left=0;bottom=0;right=0;" vertex="1" parent="ry29qnQ4L1H945Ro2DYC-110">
          <mxGeometry width="30" height="30" as="geometry">
            <mxRectangle width="30" height="30" as="alternateBounds" />
          </mxGeometry>
        </mxCell>
        <mxCell id="ry29qnQ4L1H945Ro2DYC-112" value="update_at timestamp NOT NULL DEFAULT NOW" style="shape=partialRectangle;overflow=hidden;connectable=0;fillColor=none;top=0;left=0;bottom=0;right=0;align=left;spacingLeft=6;" vertex="1" parent="ry29qnQ4L1H945Ro2DYC-110">
          <mxGeometry x="30" width="330" height="30" as="geometry">
            <mxRectangle width="330" height="30" as="alternateBounds" />
          </mxGeometry>
        </mxCell>
        <mxCell id="ry29qnQ4L1H945Ro2DYC-114" value="" style="edgeStyle=entityRelationEdgeStyle;fontSize=12;html=1;endArrow=ERoneToMany;rounded=0;startSize=8;endSize=8;curved=1;entryX=0;entryY=-0.125;entryDx=0;entryDy=0;entryPerimeter=0;exitX=1;exitY=0.5;exitDx=0;exitDy=0;strokeWidth=3;" edge="1" parent="1" source="ry29qnQ4L1H945Ro2DYC-8" target="ry29qnQ4L1H945Ro2DYC-27">
          <mxGeometry width="100" height="100" relative="1" as="geometry">
            <mxPoint x="420" y="131" as="sourcePoint" />
            <mxPoint x="470" y="225" as="targetPoint" />
          </mxGeometry>
        </mxCell>
        <mxCell id="ry29qnQ4L1H945Ro2DYC-115" value="" style="edgeStyle=entityRelationEdgeStyle;fontSize=12;html=1;endArrow=ERmandOne;startArrow=ERmandOne;rounded=0;startSize=8;endSize=8;curved=1;exitX=1;exitY=0.5;exitDx=0;exitDy=0;entryX=0;entryY=0.5;entryDx=0;entryDy=0;strokeWidth=3;" edge="1" parent="1" source="ry29qnQ4L1H945Ro2DYC-40" target="ry29qnQ4L1H945Ro2DYC-53">
          <mxGeometry width="100" height="100" relative="1" as="geometry">
            <mxPoint x="310" y="325" as="sourcePoint" />
            <mxPoint x="410" y="225" as="targetPoint" />
          </mxGeometry>
        </mxCell>
        <mxCell id="ry29qnQ4L1H945Ro2DYC-116" value="" style="edgeStyle=entityRelationEdgeStyle;fontSize=12;html=1;endArrow=ERmandOne;startArrow=ERmandOne;rounded=0;startSize=8;endSize=8;curved=1;exitX=1;exitY=0.5;exitDx=0;exitDy=0;entryX=0;entryY=0.5;entryDx=0;entryDy=0;strokeWidth=3;" edge="1" parent="1" source="ry29qnQ4L1H945Ro2DYC-72" target="ry29qnQ4L1H945Ro2DYC-104">
          <mxGeometry width="100" height="100" relative="1" as="geometry">
            <mxPoint x="390" y="575" as="sourcePoint" />
            <mxPoint x="490" y="475" as="targetPoint" />
          </mxGeometry>
        </mxCell>
        <mxCell id="ry29qnQ4L1H945Ro2DYC-117" value="Lines_stations" style="shape=table;startSize=20;container=1;collapsible=1;childLayout=tableLayout;fixedRows=1;rowLines=0;fontStyle=1;align=center;resizeLast=1;" vertex="1" parent="1">
          <mxGeometry x="30" y="285" width="360" height="180" as="geometry" />
        </mxCell>
        <mxCell id="ry29qnQ4L1H945Ro2DYC-118" value="" style="shape=partialRectangle;collapsible=0;dropTarget=0;pointerEvents=0;fillColor=none;points=[[0,0.5],[1,0.5]];portConstraint=eastwest;top=0;left=0;right=0;bottom=1;" vertex="1" parent="ry29qnQ4L1H945Ro2DYC-117">
          <mxGeometry y="20" width="360" height="30" as="geometry" />
        </mxCell>
        <mxCell id="ry29qnQ4L1H945Ro2DYC-119" value="PK" style="shape=partialRectangle;overflow=hidden;connectable=0;fillColor=none;top=0;left=0;bottom=0;right=0;fontStyle=1;" vertex="1" parent="ry29qnQ4L1H945Ro2DYC-118">
          <mxGeometry width="30" height="30" as="geometry">
            <mxRectangle width="30" height="30" as="alternateBounds" />
          </mxGeometry>
        </mxCell>
        <mxCell id="ry29qnQ4L1H945Ro2DYC-120" value="id BIGINT(20) UNSIGNED NOT NULL AUTO INCREMENT" style="shape=partialRectangle;overflow=hidden;connectable=0;fillColor=none;top=0;left=0;bottom=0;right=0;align=left;spacingLeft=6;fontStyle=5;" vertex="1" parent="ry29qnQ4L1H945Ro2DYC-118">
          <mxGeometry x="30" width="330" height="30" as="geometry">
            <mxRectangle width="330" height="30" as="alternateBounds" />
          </mxGeometry>
        </mxCell>
        <mxCell id="ry29qnQ4L1H945Ro2DYC-121" value="" style="shape=partialRectangle;collapsible=0;dropTarget=0;pointerEvents=0;fillColor=none;points=[[0,0.5],[1,0.5]];portConstraint=eastwest;top=0;left=0;right=0;bottom=0;" vertex="1" parent="ry29qnQ4L1H945Ro2DYC-117">
          <mxGeometry y="50" width="360" height="30" as="geometry" />
        </mxCell>
        <mxCell id="ry29qnQ4L1H945Ro2DYC-122" value="FK1" style="shape=partialRectangle;overflow=hidden;connectable=0;fillColor=none;top=0;left=0;bottom=0;right=0;" vertex="1" parent="ry29qnQ4L1H945Ro2DYC-121">
          <mxGeometry width="30" height="30" as="geometry">
            <mxRectangle width="30" height="30" as="alternateBounds" />
          </mxGeometry>
        </mxCell>
        <mxCell id="ry29qnQ4L1H945Ro2DYC-123" value="line_id int BIGINT(20) UNSIGNED NOT NULL" style="shape=partialRectangle;overflow=hidden;connectable=0;fillColor=none;top=0;left=0;bottom=0;right=0;align=left;spacingLeft=6;" vertex="1" parent="ry29qnQ4L1H945Ro2DYC-121">
          <mxGeometry x="30" width="330" height="30" as="geometry">
            <mxRectangle width="330" height="30" as="alternateBounds" />
          </mxGeometry>
        </mxCell>
        <mxCell id="ry29qnQ4L1H945Ro2DYC-139" value="" style="shape=partialRectangle;collapsible=0;dropTarget=0;pointerEvents=0;fillColor=none;points=[[0,0.5],[1,0.5]];portConstraint=eastwest;top=0;left=0;right=0;bottom=0;" vertex="1" parent="ry29qnQ4L1H945Ro2DYC-117">
          <mxGeometry y="80" width="360" height="30" as="geometry" />
        </mxCell>
        <mxCell id="ry29qnQ4L1H945Ro2DYC-140" value="FK1" style="shape=partialRectangle;overflow=hidden;connectable=0;fillColor=none;top=0;left=0;bottom=0;right=0;" vertex="1" parent="ry29qnQ4L1H945Ro2DYC-139">
          <mxGeometry width="30" height="30" as="geometry">
            <mxRectangle width="30" height="30" as="alternateBounds" />
          </mxGeometry>
        </mxCell>
        <mxCell id="ry29qnQ4L1H945Ro2DYC-141" value="station_id int BIGINT(20) UNSIGNED NOT NULL" style="shape=partialRectangle;overflow=hidden;connectable=0;fillColor=none;top=0;left=0;bottom=0;right=0;align=left;spacingLeft=6;" vertex="1" parent="ry29qnQ4L1H945Ro2DYC-139">
          <mxGeometry x="30" width="330" height="30" as="geometry">
            <mxRectangle width="330" height="30" as="alternateBounds" />
          </mxGeometry>
        </mxCell>
        <mxCell id="ry29qnQ4L1H945Ro2DYC-130" value="" style="shape=partialRectangle;collapsible=0;dropTarget=0;pointerEvents=0;fillColor=none;points=[[0,0.5],[1,0.5]];portConstraint=eastwest;top=0;left=0;right=0;bottom=0;" vertex="1" parent="ry29qnQ4L1H945Ro2DYC-117">
          <mxGeometry y="110" width="360" height="30" as="geometry" />
        </mxCell>
        <mxCell id="ry29qnQ4L1H945Ro2DYC-131" value="" style="shape=partialRectangle;overflow=hidden;connectable=0;fillColor=none;top=0;left=0;bottom=0;right=0;" vertex="1" parent="ry29qnQ4L1H945Ro2DYC-130">
          <mxGeometry width="30" height="30" as="geometry">
            <mxRectangle width="30" height="30" as="alternateBounds" />
          </mxGeometry>
        </mxCell>
        <mxCell id="ry29qnQ4L1H945Ro2DYC-132" value="created_at timestamp NOT NULL DEFAULT NOWÂ " style="shape=partialRectangle;overflow=hidden;connectable=0;fillColor=none;top=0;left=0;bottom=0;right=0;align=left;spacingLeft=6;" vertex="1" parent="ry29qnQ4L1H945Ro2DYC-130">
          <mxGeometry x="30" width="330" height="30" as="geometry">
            <mxRectangle width="330" height="30" as="alternateBounds" />
          </mxGeometry>
        </mxCell>
        <mxCell id="ry29qnQ4L1H945Ro2DYC-133" value="" style="shape=partialRectangle;collapsible=0;dropTarget=0;pointerEvents=0;fillColor=none;points=[[0,0.5],[1,0.5]];portConstraint=eastwest;top=0;left=0;right=0;bottom=0;" vertex="1" parent="ry29qnQ4L1H945Ro2DYC-117">
          <mxGeometry y="140" width="360" height="30" as="geometry" />
        </mxCell>
        <mxCell id="ry29qnQ4L1H945Ro2DYC-134" value="" style="shape=partialRectangle;overflow=hidden;connectable=0;fillColor=none;top=0;left=0;bottom=0;right=0;" vertex="1" parent="ry29qnQ4L1H945Ro2DYC-133">
          <mxGeometry width="30" height="30" as="geometry">
            <mxRectangle width="30" height="30" as="alternateBounds" />
          </mxGeometry>
        </mxCell>
        <mxCell id="ry29qnQ4L1H945Ro2DYC-135" value="update_at timestamp NOT NULL DEFAULT NOW" style="shape=partialRectangle;overflow=hidden;connectable=0;fillColor=none;top=0;left=0;bottom=0;right=0;align=left;spacingLeft=6;" vertex="1" parent="ry29qnQ4L1H945Ro2DYC-133">
          <mxGeometry x="30" width="330" height="30" as="geometry">
            <mxRectangle width="330" height="30" as="alternateBounds" />
          </mxGeometry>
        </mxCell>
        <mxCell id="ry29qnQ4L1H945Ro2DYC-142" value="" style="edgeStyle=orthogonalEdgeStyle;fontSize=12;html=1;endArrow=ERoneToMany;rounded=0;startSize=8;endSize=8;entryX=0.5;entryY=1;entryDx=0;entryDy=0;exitX=0.5;exitY=0;exitDx=0;exitDy=0;strokeWidth=3;" edge="1" parent="1" source="ry29qnQ4L1H945Ro2DYC-117" target="ry29qnQ4L1H945Ro2DYC-1">
          <mxGeometry width="100" height="100" relative="1" as="geometry">
            <mxPoint x="170" y="395" as="sourcePoint" />
            <mxPoint x="270" y="295" as="targetPoint" />
          </mxGeometry>
        </mxCell>
        <mxCell id="ry29qnQ4L1H945Ro2DYC-143" value="" style="edgeStyle=orthogonalEdgeStyle;fontSize=12;html=1;endArrow=ERoneToMany;rounded=0;startSize=8;endSize=8;entryX=0.5;entryY=0;entryDx=0;entryDy=0;exitX=0.5;exitY=1;exitDx=0;exitDy=0;strokeWidth=3;" edge="1" parent="1" source="ry29qnQ4L1H945Ro2DYC-117" target="ry29qnQ4L1H945Ro2DYC-36">
          <mxGeometry width="100" height="100" relative="1" as="geometry">
            <mxPoint x="80" y="605" as="sourcePoint" />
            <mxPoint x="180" y="505" as="targetPoint" />
          </mxGeometry>
        </mxCell>
      </root>
    </mxGraphModel>
  </diagram>
</mxfile>
